<svg xmlns="http://www.w3.org/2000/svg" width="738" height="1265" viewBox="0 0 738 1265">
  <defs>
    <style>
      .cls-1 {
        fill: #3e2c12;
        fill-rule: evenodd;
      }
    </style>
  </defs>
  <path id="Color_Fill_1" data-name="Color Fill 1" class="cls-1" d="M422,734v410c0,51.37,8.378,90.36-24,112-7.391,4.94-21.037,12.52-36,9-22.6-5.32-37.294-17.92-44-39-2.762-8.68-1-22.6-1-33V734c-44.011-3.867-91.346-22.277-122-41-15.524-9.482-30.554-16.809-45-27C90.167,623.791,46.665,560.428,19,486-9.915,408.21-.726,294.563,29,226,70.786,129.621,142.953,63.364,241,23c20.991-8.642,44.554-12.187,68-18,11.478-2.846,23.878-1.436,35-4,8.9-2.052,43.424-.737,51,1,14.586,3.345,27.448.473,41,4,29.188,7.6,56.383,15.2,81,26C618.766,76.635,685.606,152.689,722,263c17.119,51.888,22.718,136.881,6,195-30.217,105.048-86.671,175.263-170,227C520.774,708.113,475.2,727.5,422,734ZM368,106c-4.7,2.786-28.844,2-36,4-36.457,10.164-70.556,27.031-80,64-7.009,27.438,11.792,49.441,26,60,8.487,6.307,17.556,13.5,28,18,42,18.08,108.336,13.44,143-8,19.675-12.169,47.749-38.9,37-74-2.8-9.146-8.7-17.938-14-25-4.475-5.96-11.669-9.777-18-14C428.646,114.089,407.14,110.3,368,106Z"/>
</svg>
