<svg xmlns="http://www.w3.org/2000/svg" width="9903.6" height="9902.9" viewBox="0 0 14148 14147">
  <defs>
    <style>
      .cls-1 {
        fill: #3e2c12;
        stroke: #000;
        stroke-width: 1px;
        fill-rule: evenodd;
      }
    </style>
  </defs>
  <path id="Color_Fill_1" data-name="Color Fill 1" class="cls-1" d="M6831,583h115c3.03,10.115,12.44,19.63,18,28,12.07,18.178,23.55,36.938,35,55,39.15,61.75,76.97,123.171,116,185,13.14,20.811,26.6,41.766,40,63,6.1,9.672,16.22,19.62,20,31h1V584c10.74-3.542,29.28-1,42-1h91c4.47,13.626,1,43.542,1,60v568c-9.41,3.11-25.69,1-37,1h-79c-19.42-35.31-44.59-68.21-66-102-34.99-55.22-69.1-109.73-104-165-13.39-21.205-27.35-42.373-41-64-5.41-8.571-12.37-16.493-17-26h-1v357H6831V583Zm239,774c4.51,5.55,2.94,15.98,5,24,3.56,13.86,4.16,29.06,8,44,12.61,49.06,16.54,102.87,29,152,3.84,15.14,3.13,28.93,7,44,6.23,24.27,8.85,51.75,15,76,2.5,9.88,1.46,18.13,4,28,8.09,31.5,9.63,65.37,18,98,5.81,22.67,6.88,47.19,13,71,4.88,19.01,5.82,39.82,11,60,16.72,65.1,21.48,135.83,38,201,2.5,9.88,1.47,18.13,4,28,7.54,29.42,10.54,62.56,18,92,2.5,9.88,1.47,18.13,4,28,8.09,31.54,9.63,65.35,18,98,6.75,26.32,7.95,54.56,15,82,4.88,19.01,5.82,39.83,11,60,15.79,61.5,20.38,128.46,36,190,7.89,31.07,9.4,63.03,17,93q1.005,8.505,2,17c6.24,24.3,7.49,50.59,14,76,4.91,19.17,5.82,39.79,11,60,15.37,59.94,19.8,125.04,35,185,7.42,29.26,7.49,58.75,15,88,4.88,19.01,5.82,39.83,11,60,17.65,68.72,22.55,143.16,40,212,6.56,25.89,6.34,51.07,13,77,15.79,61.5,20.38,128.46,36,190,4.33,17.06,3.62,32.95,8,50,14.87,57.91,19.29,121.05,34,179l6,39c11.66,45.47,15.45,95.52,27,141,2.51,9.88,1.47,18.13,4,28,8.47,33.05,11.62,69.94,20,103,2.5,9.88,1.47,18.13,4,28,8.08,31.52,9.64,65.4,18,98,6.75,26.32,7.95,54.56,15,82,4.88,19.01,5.82,39.83,11,60,15.79,61.5,20.38,128.46,36,190,2.51,9.88,1.47,18.13,4,28,9.4,36.67,12.7,77.31,22,114,2.5,9.88,1.46,18.13,4,28,9.82,38.23,13.28,80.73,23,119,2.51,9.88,1.47,18.13,4,28,7.55,29.44,10.53,62.58,18,92,2.51,9.88,1.47,18.13,4,28,6.75,26.32,7.95,54.56,15,82,4.88,19.01,5.82,39.83,11,60,19.85,77.3,25.36,161.63,45,239l6,39c13.51,52.69,17.63,110.25,31,163,4.22,16.66,5.06,33.47,9,49,1.47,5.81-.4,12.26,4,15,7-8.69,19.74-13.51,29-20,27.71-19.42,55.98-38.36,84-58,84.42-59.16,170.25-116.62,255-176,180.96-126.8,364.71-249.97,546-377,55.57-38.93,112.1-76.84,168-116,18.08-12.67,36.59-25.1,55-38,9.78-6.85,18.98-15.36,30-21v2c-10.05,8.19-18.23,26.91-26,38-17.08,24.38-33.69,49.3-51,74-60.53,86.38-119.24,174.29-180,261-118.15,168.61-232.62,340.05-351,509-43.34,61.85-85.44,124.83-129,187-22.82,32.57-48.4,64.71-69,99,12.44,0.58,25.86,4.16,37,7,16.55,4.21,33.46,5.04,49,9q8.505,1.005,17,2c33.01,8.51,69.91,11.59,103,20,25.89,6.58,51.08,6.33,77,13,19.01,4.89,39.83,5.81,60,11,61.51,15.81,128.42,20.38,190,36,9.88,2.51,18.13,1.47,28,4,33.03,8.47,69.92,11.61,103,20,9.88,2.51,18.13,1.46,28,4,36.62,9.41,77.28,12.69,114,22,11.53,2.92,21.44,2.03,33,5,29.44,7.55,62.58,10.53,92,18,9.88,2.51,18.13,1.47,28,4,26.32,6.75,54.56,7.95,82,15,19.01,4.88,39.83,5.82,60,11,77.3,19.86,161.63,25.34,239,45q33,5.505,66,11c19.12,4.91,39.88,5.84,60,11,59.95,15.38,125.06,19.8,185,35,29.25,7.42,58.75,7.49,88,15,19,4.88,39.8,5.82,60,11,68.7,17.65,143.2,22.55,212,40,25.9,6.58,51.1,6.34,77,13,61.5,15.78,128.4,20.36,190,36,17.1,4.33,33,3.62,50,8,56.3,14.46,117.6,18.7,174,33,15.1,3.82,28.9,3.12,44,7,45.5,11.66,95.5,15.45,141,27,9.9,2.51,18.1,1.47,28,4,33.1,8.48,69.9,11.62,103,20,9.9,2.51,18.1,1.47,28,4,31.5,8.09,65.4,9.64,98,18,26.3,6.75,54.6,7.95,82,15,19,4.88,39.8,5.82,60,11,65.1,16.73,135.8,21.47,201,38l39,6c38.2,9.82,80.7,13.28,119,23l39,6c40.2,10.32,84.7,13.77,125,24,11.5,2.92,21.4,2.03,33,5,33.1,8.48,70,11.61,103,20l17,2c26.3,6.75,54.6,7.95,82,15,24.3,6.23,50.7,7.5,76,14,19.1,4.91,39.9,5.84,60,11,63.6,16.3,132.4,20.88,196,37,18.7,4.75,36.2,4.19,55,9,59.9,15.36,125,19.8,185,35,23.8,6.03,48.2,7.23,71,13,9.5,2.4,23.2.68,30,6-18.6,1.79-39.4,6.52-57,11-29,7.38-59.1,8.89-87,16l-39,6c-45.5,11.69-95.5,15.44-141,27-25.9,6.59-51.1,6.36-77,13-19.2,4.92-39.8,5.82-60,11-68.7,17.64-143.2,22.53-212,40-9.9,2.51-18.1,1.47-28,4-36.7,9.41-77.3,12.69-114,22-9.9,2.51-18.1,1.46-28,4-36.6,9.41-77.3,12.68-114,22-11.5,2.92-21.4,2.03-33,5-29.4,7.55-62.6,10.53-92,18-9.9,2.51-18.1,1.47-28,4-26.3,6.75-54.6,7.95-82,15-19,4.88-39.8,5.82-60,11-19,4.88-39.8,5.82-60,11-61.5,15.8-128.5,20.37-190,36-22.4,5.68-43.7,5.28-66,11-19.2,4.92-39.8,5.82-60,11-59.9,15.37-125,19.79-185,35-25.9,6.58-51.1,6.34-77,13-76,19.48-157.9,24.71-234,44q-33,5.505-66,11c-61.5,15.8-128.5,20.37-190,36-17.1,4.33-33,3.62-50,8-41.8,10.75-88.1,14.36-130,25l-39,6c-36.6,9.41-77.3,12.69-114,22-11.5,2.92-21.4,2.03-33,5-33.07,8.48-69.96,11.61-103,20q-8.505,1.005-17,2c-29.95,7.68-61.96,9.02-93,17-19.01,4.88-39.83,5.82-60,11-77.3,19.86-161.63,25.34-239,45l-39,6c-40.25,10.32-84.67,13.77-125,24-11.53,2.92-21.44,2.03-33,5-36.68,9.41-77.33,12.7-114,22l-39,6c-25.81,6.63-55.13,9.44-81,16-9.88,2.51-18.13,1.46-28,4-31.5,8.09-65.38,9.63-98,18-26.32,6.75-54.57,7.95-82,15-19.01,4.88-39.83,5.82-60,11-65.1,16.73-135.83,21.47-201,38-18.77,4.76-36.28,4.2-55,9-67.15,17.21-139.79,21.97-207,39-23.75,6.02-48.31,6.99-71,13-8.25,2.18-19.8.54-26,5,10.1,8.23,18.2,26.87,26,38,16.38,23.38,32.39,47.3,49,71,53.8,76.77,105.98,154.91,160,232,131.64,187.85,259.14,378.82,391,567,40.31,57.54,79.46,116.13,120,174,13.36,19.07,26.41,38.6,40,58,6.26,8.93,16.32,18.02,20,29h-1c-7.61-7.48-18.12-11.77-27-18-18.08-12.67-36.6-25.1-55-38-55.57-38.94-112.11-76.84-168-116-176.65-123.79-356.02-244-533-368-87.75-61.49-176.93-121.29-265-183-27.71-19.42-55.98-38.37-84-58-10.88-7.62-22.91-20.59-36-25q-413.955,2257.77-828,4516h-1q-414.465-2257.8-829-4516h-1v1c-8.86,4.25-16.27,11.56-24,17-23.68,16.65-47.63,32.57-71,49-65.43,46-131.88,90.25-197,136-37.75,26.52-76.22,50.52-114,77-155.06,108.65-312.61,214.12-468,323-65.18,45.67-131.5,90.11-197,136-22.44,15.72-44.92,31.54-68,47-9.06,6.07-18.1,16.35-29,20v-1q403.455-584.445,807-1169h-5c-5.76-3.61-14.54-2.08-22-4-19.09-4.91-39.78-5.81-60-11-52.68-13.53-110.23-17.61-163-31-15.17-3.85-28.85-3.11-44-7-33.1-8.49-69.92-11.61-103-20-9.88-2.51-18.13-1.47-28-4-31.52-8.09-65.4-9.64-98-18-26.36-6.76-54.56-7.95-82-15-19.01-4.88-39.83-5.82-60-11-61.5-15.8-128.46-20.37-190-36-9.88-2.51-18.13-1.47-28-4-29.42-7.54-62.56-10.54-92-18-9.88-2.51-18.13-1.47-28-4-31.52-8.08-65.4-9.64-98-18-22.74-5.83-47.15-6.89-71-13-19.09-4.9-39.77-5.81-60-11-61.54-15.78-128.44-20.37-190-36-31.07-7.89-63.03-9.4-93-17q-8.505-1.005-17-2c-27.91-7.17-57.96-8.55-87-16-19.16-4.91-39.75-5.81-60-11-65.15-16.71-135.86-21.46-201-38-29.28-7.44-58.77-7.5-88-15-19.16-4.91-39.75-5.81-60-11-59.92-15.37-124.99-19.78-185-35q-33-5.505-66-11c-68.7-17.65-143.18-22.55-212-40-22.31-5.66-43.66-5.26-66-11-56.27-14.45-117.62-18.7-174-33-15.08-3.82-28.87-3.12-44-7-45.5-11.67-95.5-15.45-141-27-9.88-2.51-18.13-1.47-28-4-33.05-8.48-69.94-11.62-103-20-9.88-2.51-18.13-1.46-28-4-31.5-8.09-65.37-9.63-98-18-22.74-5.83-47.15-6.89-71-13-19.09-4.9-39.78-5.81-60-11-61.5-15.8-128.46-20.37-190-36-9.88-2.51-18.13-1.47-28-4-33.03-8.47-69.92-11.61-103-20-9.88-2.51-18.13-1.46-28-4-29.4-7.55-62.54-10.53-92-18-9.88-2.51-18.13-1.46-28-4-25.81-6.63-55.12-9.44-81-16-9.88-2.51-18.13-1.47-28-4-27.89-7.16-58.01-8.57-87-16-19.17-4.92-39.79-5.82-60-11-68.75-17.63-143.24-22.54-212-40l-39-6c-52.67-13.52-110.23-17.64-163-31-16.65-4.22-33.42-5.06-49-9-8.25-2.09-19.17-.45-25-5,18.68-1.8,39.5-6.54,57-11,27.45-7,55.66-8.3,82-15,9.88-2.51,18.13-1.46,28-4,45.44-11.71,95.47-15.44,141-27,29.25-7.43,58.75-7.48,88-15,20.67-5.31,43.25-6.42,65-12,72.39-18.58,150.65-23.62,223-42,9.88-2.51,18.13-1.47,28-4,33.05-8.48,69.94-11.62,103-20,9.88-2.51,18.13-1.46,28-4,36.62-9.41,77.28-12.69,114-22,11.53-2.92,21.44-2.03,33-5,29.48-7.56,62.56-10.52,92-18,9.88-2.51,18.13-1.47,28-4,26.32-6.75,54.56-7.95,82-15,19.01-4.89,39.83-5.82,60-11,77.28-19.85,161.64-25.35,239-45,22.35-5.68,43.7-5.28,66-11,19.17-4.92,39.79-5.82,60-11,59.95-15.38,125.01-19.79,185-35,25.89-6.57,51.07-6.34,77-13,68.72-17.66,143.17-22.54,212-40,22.31-5.66,43.66-5.26,66-11,61.5-15.8,128.46-20.37,190-36l39-6c45.45-11.68,95.5-15.46,141-27l39-6c38.23-9.82,80.73-13.28,119-23l39-6c29.42-7.55,62.56-10.53,92-18,9.88-2.51,18.13-1.46,28-4,31.5-8.09,65.37-9.63,98-18,22.74-5.83,47.15-6.88,71-13,77.31-19.83,161.64-25.35,239-45l39-6c40.25-10.32,84.67-13.77,125-24,11.53-2.92,21.44-2.03,33-5,36.66-9.41,77.31-12.69,114-22,9.88-2.51,18.13-1.46,28-4,33.01-8.48,69.9-11.6,103-20,11.53-2.92,21.44-2.03,33-5,29.95-7.68,61.96-9.02,93-17,27.89-7.16,58.01-8.56,87-16,19.16-4.92,39.75-5.81,60-11,65.15-16.71,135.86-21.45,201-38,17.06-4.33,32.95-3.62,50-8,65.12-16.72,135.79-21.48,201-38,23.86-6.04,48.21-7.23,71-13,8.7-2.2,20.39-.45,27-5-9.54-7.69-14.88-21.84-22-32-19.41-27.7-38.36-55.98-58-84-59.85-85.4-117.93-172.27-178-258-122.13-174.29-240.64-351.37-363-526-42.65-60.86-84.13-122.8-127-184-12.67-18.08-25.11-36.6-38-55-6.84-9.76-15.39-19.03-21-30h2c5.42,6.65,14.86,10,22,15,19.07,13.36,38.6,26.41,58,40,65.18,45.67,131.5,90.1,197,136,212.64,149,428.53,294.76,641,444,56.83,39.92,114.48,78.32,171,118,18.39,12.91,36.93,25.32,55,38,7.1,4.98,16.77,8.23,22,15h1v-2c5.27-8.42,3.29-22.48,6-33,6.25-24.29,7.47-50.6,14-76,17.66-68.75,22.54-143.19,40-212,4.75-18.74,4.19-36.25,9-55,10.75-41.91,14.36-88.11,25-130l6-39c8.48-33.02,11.6-69.9,20-103,2.92-11.53,2.03-21.44,5-33,8.09-31.54,9.64-65.42,18-98,6.76-26.36,7.95-54.56,15-82,5.31-20.67,6.42-43.25,12-65,16.73-65.21,21.44-135.83,38-201l6-39c10.74-41.89,14.37-88.09,25-130l6-39c16.73-65.12,21.45-135.75,38-201,4.73-18.65,4.19-36.29,9-55,13.95-54.29,18.2-113.68,32-168l6-39c9.82-38.23,13.28-80.73,23-119l6-39c6.63-25.81,9.44-55.13,16-81,2.51-9.88,1.46-18.13,4-28,8.06-31.36,9.73-65.81,18-98,6.24-24.3,7.48-50.59,14-76,4.92-19.17,5.82-39.79,11-60,15.79-61.55,20.36-128.45,36-190l6-39c15.8-61.5,20.38-128.41,36-190,5.66-22.31,5.26-43.66,11-66,9.83-38.25,13.28-80.74,23-119,2.51-9.88,1.47-18.13,4-28,6.62-25.8,9.45-55.2,16-81,2.51-9.88,1.47-18.13,4-28,7.17-27.94,8.56-57.98,16-87,4.91-19.16,5.81-39.75,11-60,17.64-68.76,22.54-143.17,40-212,2.94-11.57,2.04-21.48,5-33,8.49-33.1,11.61-69.92,20-103l6-39c6.24-24.3,7.48-50.59,14-76,4.91-19.16,5.81-39.75,11-60,15.79-61.57,20.38-128.41,36-190,7.43-29.28,7.49-58.75,15-88,16.72-65.11,21.46-135.78,38-201,4.73-18.65,4.2-36.29,9-55,8.47-33.02,11.62-69.9,20-103,2.92-11.53,2.04-21.43,5-33,5.81-22.75,6.9-47.15,13-71A556.448,556.448,0,0,0,7070,1357Zm-1,766c-0.04,18.31-6.73,46.21-11,63-6.78,26.67-7.51,54.45-14,80-3.59,14.13-2.38,26.88-6,41-15.58,60.72-18.6,127.21-34,188q-1.005,9-2,18c-6.93,27.07-9.13,57.89-16,85q-1.005,9-2,18c-6.92,27.04-9.15,57.94-16,85q-1.005,9-2,18c-6.54,25.54-7.18,53.34-14,80-5.13,20.06-5.58,41.82-11,63-5.13,20.06-5.58,41.82-11,63-15.55,60.75-18.61,127.23-34,188-4.98,19.68-3.98,38.38-9,58-16.05,62.71-19.11,131.24-35,194-4.97,19.63-3.97,38.34-9,58-15.55,60.73-18.61,127.21-34,188-4.99,19.72-3.96,38.3-9,58-14.13,55.2-17.01,115.75-31,171-3.07,12.14-1.88,22.82-5,35-10.78,42.12-13.33,88.85-24,131-3.08,12.14-1.88,22.82-5,35-7.95,31.04-10.29,65.82-18,97q-1.995,14.49-4,29c-6.93,27.07-9.14,57.89-16,85q-1.005,9-2,18c-5.12,19.99-5.58,41.84-11,63-4.62,18.03-5.1,37.85-10,57-16.06,62.74-19.11,131.23-35,194-4.97,19.63-3.97,38.34-9,58-5.12,19.99-5.58,41.84-11,63-15.55,60.73-18.61,127.21-34,188-6.81,26.89-6.12,54.12-13,81-8.85,34.58-11.23,73.35-20,108-3.07,12.14-1.88,22.82-5,35-6.92,27.04-9.15,57.94-16,85q-1.005,9-2,18c-6.54,25.54-7.18,53.34-14,80-5.12,20.01-5.6,41.9-11,63-5.13,20.06-5.58,41.82-11,63-14.13,55.2-17.01,115.75-31,171q-1.995,14.505-4,29c-7.77,31.12-10.14,65.94-18,97-3.08,12.14-1.88,22.82-5,35-5.12,19.99-5.59,41.84-11,63-15.54,60.72-18.62,127.23-34,188-6.81,26.9-6.13,54.11-13,81-8.83,34.58-11.24,73.35-20,108-3.07,12.14-1.9,22.82-5,35-5.09,20-5.62,41.83-11,63-2.63,10.35-5.52,21.98-6,34q367.455,366.96,735,734V2123h-1ZM6522,3462c-0.01,17.98-5.85,37.93-10,54-8.79,34.04-10.5,69.94-19,103-4.82,18.74-4.17,36.29-9,55-13.53,52.37-17.55,109.63-31,162-3.89,15.15-3.1,28.85-7,44-7.08,27.49-9.96,58.55-17,86-2.53,9.87-1.47,18.13-4,28-5.32,20.71-6.41,43.17-12,65-3.29,12.83-6.84,27.77-8,42-6.92.65-14.1,3.33-20,5-19.85,5.62-39.45,8.35-58,14-18.45,5.61-35.8,7.06-54,13-37.83,12.35-78.04,22.72-115,35-79.64,26.46-156.84,49.81-231,82-31.75,13.78-63.99,26.9-96,41-15.47,6.81-31.63,16.23-47,23-52.06,22.92-103.89,47.3-151,76-7.55,4.6-15.47,6.42-23,11-25.74,15.65-53.05,29.09-79,45-69.64,42.71-138.84,85.63-205,132-291.13,204.07-538.88,453.76-743,745-35.52,50.68-70.57,103.01-104,156-23.43,37.14-41.95,76.11-65,114a1191.466,1191.466,0,0,0-72,138c-8.74,19.83-21.19,39.98-30,60q-26.175,59.475-52,119c-8.85,20.43-14.42,40.31-23,61-20.79,50.15-39.47,104.14-57,157-7.3,22.02-11.62,42.78-19,65-12.7,38.24-20.77,78.63-33,119-5.32,17.54-11.32,36.89-14,56l-642,118v-7q9.495-53.49,19-107c5.22-19.35,6.37-40,12-60,13.15-46.7,20.2-96.7,34-142,4.89-16.04,5.85-31.19,11-47,23.17-71.17,39.72-144.9,65-213,6.66-17.95,9.73-35.33,17-53,23.95-58.25,42.11-118.64,67-176,27.29-62.9,55.61-124.86,83-187,4.4-9.97,11.61-20.02,16-30,15.54-35.32,32.52-70.02,52-102,10.12-16.62,15.94-34.45,26-51,29.65-48.78,55.64-99.76,86-148q74.355-118.14,154-231c19.48-27.66,42.05-53.85,62-81,37.38-50.86,79.36-96.94,117-147,16.36-21.76,37.46-40.1,54-62,18.63-24.67,44.24-44.17,63-69q8.505-7.995,17-16c19.19-25.39,44.61-46.62,67-69,22.07-22.07,42.96-47.08,68-66q7.995-8.505,16-17c18.55-14.03,33.39-31.94,52-46q4.005-4.5,8-9c22.64-17.12,41.51-39.04,64-56,53.63-40.44,102.71-87.09,157-127,88.44-65.01,178.01-129.53,272-189,153.82-97.33,317.3-181.31,492-258,48.29-21.2,99.37-41.48,149-62,30.71-12.7,62.73-21.59,93-34,9.09-3.73,17.91-4.27,27-8,46.36-19.05,98.38-31.95,147-48,49.7-16.41,101.58-25.75,152-41,11.38-3.44,21.34-3.7,33-7,43.76-12.39,91.9-19.54,137-31,16.48-4.19,31.46-3.78,48-8,19.95-5.09,41.71-5.73,63-11C6487.22,3466.23,6505,3462.67,6522,3462Zm1097,0c14.84,0,30.95,3.76,44,7,23.24,5.77,47.17,6.43,69,12q24,4.005,48,8c52.14,14.09,107.68,20.87,158,36,30.54,9.18,60.11,12.27,90,22,54.37,17.7,111.08,32.44,164,50,20.86,6.92,40.92,10.74,61,19,66.95,27.52,136.41,47.54,202,76,46.69,20.26,93.42,40.47,140,61,15.85,6.98,32.24,17.06,48,24,57.63,25.37,117.79,55.19,170,87,17.39,10.6,35.67,17.44,53,28,48.82,29.73,98.77,57.55,147,88,70.47,44.48,138.43,92.41,206,140,21.18,14.92,41.19,32.71,62,48,49.71,36.54,95.04,77.18,144,114,27.04,20.33,49.86,46.49,77,67,6.91,5.22,12.1,13.78,19,19,20.1,15.2,35.94,34.84,56,50q10.005,10.5,20,21c22.8,17.23,42.38,40.39,62,61,25.01,26.27,53.99,49.87,76,79q6.495,6,13,12c12.35,16.33,27.63,29.62,40,46q4.5,4.005,9,8c16.28,21.53,36.91,39.63,53,61,37.29,49.53,80.2,94.94,117,145,50.8,69.08,103.8,137.96,150,211,105,165.99,202.9,336.99,286,526,25.1,57.15,49.6,117.03,74,176,6.8,16.5,10.2,32.41,17,49,22.4,54.43,40,113.82,59,171,19.2,57.9,31.1,118.4,50,177,4.5,13.9,5,26.72,9,41,12.6,44.45,19.8,93.21,32,139,4.7,17.53,4.4,34.15,9,52,4.5,17.62,5.2,37.05,10,56,3.8,15.08,7.6,32.67,8,50q-320.4-58.5-641-117c-0.5-11.39-5.2-23.12-8-33-5.1-17.93-7.7-35.55-13-52-4.7-14.36-5.3-27.75-10-42-12.62-38.55-23.48-79.32-36-117-50.78-152.83-105.44-296.61-175-430-25.55-49-48.86-98.06-77-144-6.5-10.6-10.52-21.43-17-32-21.01-34.26-41.48-68.92-63-103-46.07-72.96-97.51-142.18-148-211-37.75-51.46-82.73-97.25-121-148-14.95-19.82-34.9-36.01-50-56q-6-5.505-12-11c-12.35-16.33-27.58-31.58-42-46q-9-8.505-18-17a218.072,218.072,0,0,0-41-41c-10.98-8.29-18.77-20.51-30-29q-8.505-9-17-18c-30.15-22.8-54.67-52.12-85-75-7.11-5.36-12.88-13.63-20-19-26.28-19.82-49.7-43.49-76-63-66.64-49.42-132.53-99.89-201-148-65.95-46.33-137.43-85.53-207-128-19.18-11.71-39.68-19.26-59-31-67.64-41.09-142.99-73.07-218-106a3001.336,3001.336,0,0,0-550-181c-7.33-22.72-6.78-47.93-13-72-14.12-54.6-18.01-114.31-32-169-3.88-15.15-3.1-28.85-7-44-13.16-51.06-16.93-106.97-30-158l-6-39c-7.69-29.95-9.06-61.94-17-93C7625.92,3506.15,7620.75,3483.38,7619,3462ZM5340,5335c3.34,6.96,8.82,12.06,13,18q16.68,23.715,33,47,53.25,75.69,106,151,161.76,230.175,323,460,55.665,79.23,111,158c9.47,13.48,18.74,26.85,28,40,3.89,5.52,3.76,11.55,13,12,9.19-5.76,36.25-5.72,49-9,36.66-9.42,77.31-12.68,114-22,13.06-3.32,26.04-3.96,38-7,5.73-1.46,14.21.28,17-4Q5762.54,5757.035,5340,5335Zm3458,1c-4.09,5.03-10.59,7.21-16,11-14.51,10.17-29.19,20.6-44,31q-70.275,49.365-141,99c-154.48,108.31-308.61,218.53-463,327q-82.74,58.125-165,116c-13.42,9.43-26.72,19.07-40,28-5.75,3.86-13.37,4.89-14,14,6.26,9.96,6.41,41.07,10,55,9.85,38.22,13.25,80.74,23,119,3.01,11.82,2.11,35.42,8,44q421.455-421.965,843-844h-1Zm-992,994q-366.96,367.47-734,735h4941v-1c-19.2-.37-44.4-6.52-62-11-28.5-7.23-58.5-8.02-86-15-12.2-3.09-22.9-1.89-35-5-55.2-14.16-115.8-17.01-171-31q-9-1.005-18-2c-27.1-6.93-57.9-9.13-85-16q-9-1.005-18-2c-27-6.92-57.9-9.15-85-16q-9-1.005-18-2c-25.5-6.54-53.3-7.18-80-14-20.1-5.13-41.8-5.58-63-11-68-17.4-143-20.77-211-38-19.7-4.99-38.3-3.96-58-9-68-17.41-142.9-20.77-211-38-19.7-4.99-38.3-3.96-58-9-68-17.41-142.9-20.77-211-38-19.7-4.99-38.3-3.96-58-9-55.2-14.12-115.8-17.02-171-31-12.1-3.08-22.8-1.88-35-5-42.1-10.79-88.8-13.32-131-24-12.1-3.07-22.8-1.88-35-5-31-7.93-65.8-10.3-97-18-9.7-1.33-19.34-2.67-29-4-27.07-6.93-57.89-9.14-85-16q-9-1.005-18-2c-25.51-6.53-53.52-7.22-80-14-20.06-5.13-41.82-5.58-63-11-60.73-15.55-127.24-18.62-188-34-26.91-6.81-54.13-6.12-81-13-19.99-5.12-41.84-5.59-63-11-60.72-15.54-127.23-18.61-188-34-26.89-6.81-54.12-6.12-81-13-34.58-8.85-73.35-11.23-108-20-12.14-3.08-22.82-1.88-35-5-27.04-6.92-57.95-9.15-85-16q-9-1.005-18-2c-25.6-6.55-53.31-7.17-80-14-20.02-5.12-41.9-5.6-63-11-20.06-5.13-41.82-5.58-63-11-55.2-14.13-115.75-17.01-171-31q-14.505-1.995-29-4c-31.11-7.78-65.94-10.14-97-18-12.14-3.07-22.82-1.88-35-5-19.99-5.12-41.84-5.59-63-11-60.72-15.54-127.23-18.62-188-34-26.9-6.81-54.11-6.14-81-13-29.04-7.41-61.82-9.81-91-17q-14.505-1.995-29-4c-20.07-5.11-41.81-5.61-63-11C7830.39,6333.3,7818.41,6330.38,7806,6330ZM509,6751H648v2c5.247,8.02,4.135,20.94,7,31,7.325,25.73,10.4,53.22,18,80,8.145,28.69,11.547,59.25,20,89,14.786,52.03,25.166,107.75,37,161h1c0.453-10.4,5.107-21.21,8-30,5.517-16.77,8.073-34.11,13-50,14.515-46.82,22.08-95.37,37-141,4.784-14.63,5.235-28.36,10-43,6.324-19.44,9.377-40.57,16-61,3.716-11.46,8.9-24.84,10-38h98v2l94,361h1q40.995-181.485,82-363h140v2c-2.85,4.36-2.27,10.35-4,16-3.97,12.96-5.8,27.28-10,41-13.83,45.18-20.77,92.6-34,139-19.66,68.95-33.47,142.01-53,211-6.03,21.28-7.96,40.72-14,62-10.16,35.78-16.58,73.12-27,110-4.22,14.94-10.55,31.49-12,48H961c-0.511-10.45-5.135-21.15-8-30-5.759-17.8-8.549-36.14-14-53-3.465-10.71-3.5-20.25-7-31-13.461-41.33-21.659-86.66-35-128-6.182-19.16-9.139-38.83-15-57-2.7-8.38-2.022-19.73-7-26-0.589,12.33-6.508,25.41-10,36-6.433,19.51-9.912,39.47-16,58-12.8,38.94-18.27,78.03-31,117-11.922,36.5-23.548,75.91-32,114H662v-1h-1c-0.649-15.58-7.081-31.28-11-45-10.239-35.84-15.413-72.33-26-107-6.373-20.87-7.98-40.92-14-62-18.64-65.28-31.466-134.69-50-200-4.536-15.99-5.456-30.02-10-46-9.386-33.01-14.742-68.22-25-102C519.336,6798.34,510.683,6771.19,509,6751Zm12571,130v121h245c3.5,10.47,1,28.56,1,41v89c-6,1.97-16.3,1-24,1h-222v117h290v129c-10.5,3.44-28.6,1-41,1h-383c-4.5-13.63-1-43.54-1-60V6752c10.5-3.44,28.5-1,41-1h383c3.5,10.47,1,28.56,1,41v88c-7.3,2.4-19.9,1-29,1h-261ZM2128,7066c7.23,4.4,19.04,2.66,28,5,24.11,6.3,49.86,6.72,75,13,62.86,15.71,131.24,19.11,194,35,19.72,4.99,38.3,3.96,58,9,34.62,8.86,73.35,11.23,108,20,12.19,3.08,22.87,1.89,35,5,31.01,7.94,65.86,10.3,97,18q14.49,1.995,29,4c27.09,6.93,57.91,9.14,85,16q9,1.005,18,2c20.06,5.13,41.82,5.58,63,11,19.99,5.12,41.84,5.59,63,11,60.72,15.54,127.23,18.62,188,34,12.19,3.08,22.87,1.89,35,5,34.62,8.86,73.4,11.24,108,20,14.13,3.58,26.88,2.39,41,6,18.03,4.61,37.85,5.1,57,10,62.74,16.06,131.24,19.11,194,35,19.72,4.99,38.3,3.96,58,9,60.74,15.54,127.22,18.62,188,34,14.13,3.58,26.88,2.39,41,6,47.65,12.19,100.29,14.92,148,27,12.14,3.07,22.82,1.88,35,5,34.62,8.86,73.35,11.23,108,20,12.19,3.08,22.87,1.89,35,5,31.03,7.94,65.87,10.3,97,18q14.49,1.995,29,4c25.6,6.55,53.31,7.17,80,14,20.01,5.12,41.9,5.6,63,11,20.06,5.13,41.82,5.58,63,11,62.73,16.05,131.22,19.11,194,35,17.67,4.47,34.34,3.48,52,8,14.45,3.7,30.41,4.01,46,8,60.72,15.54,127.23,18.62,188,34,26.89,6.81,54.12,6.12,81,13,29.04,7.43,61.82,9.8,91,17q14.49,1.995,29,4c25.48,6.52,54.37,8.67,80,15l23,3c27.48,7.03,57.58,7.73,86,15,19.99,5.12,41.84,5.59,63,11,60.73,15.54,127.2,18.61,188,34q14.505,1.995,29,4c31.12,7.78,65.96,10.14,97,18,12.14,3.07,22.82,1.88,35,5,20.06,5.13,41.82,5.58,63,11,55.19,14.12,115.74,17.02,171,31,17.68,4.47,34.33,3.49,52,8,31.04,7.92,65.86,10.33,97,18q14.505,1.995,29,4c18.12,4.61,37.77,5.23,57,10,11.05,2.74,23.06,5.61,36,6,8.99-13.57,24.54-24.54,36-36l77-77,241-241,259-259,82-82c11.91-11.91,25.17-29.82,39-39v-1H2128Zm4943,0v4916c0,7.3-2.17,21.9,1,27,0.03-11.6,3.45-24,6-34,4.87-19.2,5.42-39,10-57,1.33-9.7,2.67-19.3,4-29,7.81-31.2,10.12-65.9,18-97,6.4-25.2,5.54-49.8,12-75,5.13-20,5.6-41.9,11-63,17.42-68,20.77-143,38-211,3.58-14.1,2.38-26.9,6-41,10.27-40.1,12.83-84.8,23-125,3.58-14.1,2.39-26.9,6-41,8.85-34.6,11.23-73.4,20-108,3.07-12.1,1.88-22.8,5-35,7.93-31,10.3-65.8,18-97,1.33-9.7,2.67-19.3,4-29,6.93-27.1,9.14-57.9,16-85q1.005-9,2-18c6.53-25.5,7.22-53.5,14-80,5.13-20.1,5.58-41.8,11-63,15.54-60.7,18.62-127.2,34-188q1.005-9,2-18c6.93-27.1,9.14-57.9,16-85q1.005-9,2-18c6.52-25.5,8.67-54.4,15-80,1-7.7,2-15.3,3-23,7.03-27.5,7.72-57.6,15-86,4.61-18,5.1-37.8,10-57,16.06-62.7,19.11-131.2,35-194q1.995-14.505,4-29c7.78-31.12,10.14-65.94,18-97,3.07-12.14,1.88-22.82,5-35,6.92-27.04,9.15-57.95,16-85q1.005-9,2-18c5.12-19.99,5.58-41.84,11-63,5.12-19.99,5.59-41.84,11-63,15.54-60.73,18.61-127.21,34-188q1.005-9,2-18c6.92-27.04,9.15-57.95,16-85q1.005-9,2-18c5.12-19.99,5.58-41.84,11-63,4.61-18.03,5.1-37.85,10-57,14.13-55.22,17.02-115.77,31-171,6.81-26.91,6.12-54.13,13-81,5.12-19.99,5.58-41.84,11-63,13.62-53.2,16.52-111.76,30-165,4.98-19.68,3.98-38.38,9-58,14.13-55.22,17.02-115.77,31-171,4.99-19.72,3.96-38.3,9-58,10.78-42.12,13.33-88.85,24-131,3.07-12.14,1.88-22.82,5-35,7.94-31.04,10.3-65.82,18-97q1.995-14.505,4-29c6.54-25.58,7.17-53.27,14-80,5.12-20.06,5.6-41.82,11-63,12.33-48.34,16.43-100.87,27-150Q7439.035,7433.53,7071,7066Zm3607,516c0.2,17.77-4.2,37.25-8,53-5.9,24.37-6.2,49.14-12,72-5.2,20.54-4.8,39.69-10,60-12.2,47.14-19.1,97.28-32,143-7.7,27.46-10.2,54.1-19,81-23.1,71.02-39.2,145-64,213-7.8,21.48-11.4,42.06-20,63-27.2,66.07-47.9,134.24-76,199-19.4,44.74-39.3,89.33-59,134-8.2,18.62-19.9,37.52-28,56-25.3,57.4-54.3,113.92-86,166-11.2,18.43-18.8,37.69-30,56-27.6,45.2-53.8,91.25-82,136-45,71.24-93.9,139.7-142,208-15.2,21.58-33.44,41.82-49,63-36.1,49.12-76.63,93.63-113,142-18.77,24.96-43.05,45.91-62,71q-4.5,4.005-9,8c-18.18,24.05-41.89,43.03-60,67q-10.5,10.005-21,20c-18.43,24.39-43.48,44.48-65,66-31.42,31.42-62.37,66.07-98,93q-4.995,5.505-10,11c-24.88,18.81-45.28,43.33-70,62-22.32,16.85-41.79,37.39-64,54-51.04,38.17-98.8,81.15-151,118-81.55,57.6-163.57,115.1-249,169-142.15,89.7-294.25,167.4-455,238-43.59,19.1-89.27,38.5-134,57-27.23,11.3-55.26,20-82,31-14.48,5.9-28.44,8-43,14-42.08,17.3-88.97,30.4-133,45-56.26,18.6-114.62,30.6-172,48-19.27,5.8-37.41,7.5-57,13-42.49,12-89.22,18.9-133,30-16.48,4.2-31.46,3.8-48,8-19.95,5.1-41.71,5.7-63,11-15.22,3.8-33,7.3-50,8,0.41-8.9,3.02-18.3,5-26,4.26-16.6,5.02-33.4,9-49,2.52-9.9,1.45-18.1,4-28,7.19-27.9,9.9-59.2,17-87,5.27-20.6,4.69-40.4,10-61,4.93-19.2,5.79-39.8,11-60,14.57-56.7,18.56-118.3,33-175,9.65-37.9,11.57-78,21-115,2.15-8.4,3.19-36.3,9-39,7.21-4.5,18.12-3.5,27-6,18.28-5.2,38.06-8.2,57-14,57.48-17.57,115.87-30.24,172-49,87.05-29.1,173.33-58.54,255-94,36.02-15.64,71.86-32.07,108-48,12.89-5.68,26.19-14.36,39-20,30.17-13.28,59.78-27.42,87-44,13.65-8.32,28.4-12.73,42-21,34.37-20.9,70.57-38.88,105-60,39.94-24.5,79.35-49.97,119-75,76.02-48,145.35-105.39,217-158,44.95-33.01,83.58-74.45,128-108,15.66-11.83,28.14-28.02,44-40q6-6.495,12-13c13.23-10.01,25.33-22.33,37-34q6-6.495,12-13a200.817,200.817,0,0,0,38-38c8.29-10.98,20.51-18.77,29-30,8.87-11.74,23.1-20.24,32-32,24.53-32.43,55.41-59.34,80-92,3.24-4.3,8.76-7.7,12-12,19.97-26.52,43.43-50.4,63-77,55.12-74.95,113.62-148.39,164-228,81-128,159.42-262.39,223-407,23.59-53.67,45.38-108.32,68-163,12.67-30.63,21.57-62.68,34-93,13.99-34.14,21.16-69.41,33-105,27-81.05,47.2-167.99,67-256h2c9.1-5.7,36.3-5.73,49-9,33.1-8.54,69.9-11.54,103-20,11.6-2.96,21.5-2.03,33-5,58-14.94,121.1-19.18,179-34l39-6c31.4-8.07,65.8-9.74,98-18,24.3-6.24,50.6-7.5,76-14A503.719,503.719,0,0,1,10678,7582Zm-7214,15c17.8,0.01,44.75,6.83,61,11,35.93,9.22,73.96,11.04,109,20,22.34,5.71,43.67,5.24,66,11,74.31,19.15,154.61,24.01,229,43l22,3c31.47,8.09,66.51,10.98,98,19,12.64,3.22,44.8,4.11,53,10,3.18,5.15,2.14,12.49,4,19,5,17.55,7.45,36.84,13,55,16.77,54.9,27.06,111.3,45,165,26.53,79.43,50.76,158.7,82,234,20.09,48.42,42.32,97,63,144,13.97,31.75,28.46,62.2,44,92,6.22,11.92,10.03,24.52,17,36,29.71,48.9,53.21,101.42,83,150,48.47,79.03,98.35,156.24,151,231,28.88,41.01,61.32,79.58,91,120,9.21,12.54,21.7,23.56,31,36,22,29.43,47.98,54.84,70,84,10.7,14.16,25.14,25.63,36,40q5.505,4.995,11,10c6.18,6.94,11.6,14.28,18,21q8.505,7.995,17,16c15.14,20.02,35.36,36.36,53,54,22.93,22.93,44.97,48.33,71,68,8.39,6.34,14.6,16.65,23,23,26.54,20.08,48.54,46.08,75,66,28.95,21.8,54.92,47.61,84,69,47.68,35.07,94.06,70.7,143,105,64.25,45.03,131.07,88.24,199,130,28.42,17.47,58.28,30.55,87,48,44.51,27.05,92.91,51.37,142,73,23.05,10.16,46.68,23.75,70,34,51.38,22.59,103.74,43.39,156,65,57.11,23.62,118.42,42.25,178,62,19.33,6.41,37.49,9.53,57,16,43.3,14.36,88.89,23,135,36,16.83,4.8,35.65,10.4,54,13,0.4,8.9,3.01,18.3,5,26,4.69,18.2,5.6,36.9,10,54,2.54,9.9,1.44,18.1,4,28,8.04,31,11.02,66,19,97,4.82,18.7,4.17,36.3,9,55,15.38,59.6,19.72,124.4,35,184,4.8,18.7,4.18,36.3,9,55,6.25,24.3,7.48,50.5,14,76,4.86,19,11.24,44.2,12,65-14.65,0-30.92-3.8-44-7-24.91-6.2-50.5-7-74-13-19.52-5-37.84-4.8-57-10-57.09-15.4-117.09-23.4-172-40-14.77-4.5-28.39-5.2-43-10-49.18-16-100.05-26.6-149-43-130.25-43.5-256.32-89.5-376-142-25.96-11.4-50.29-21.7-76-33-10.79-4.8-22.23-12.3-33-17-25.05-11-50.43-22.2-73-36-17.68-10.8-37.38-16.3-55-27-43.97-26.7-91.15-48.1-135-75-53.57-32.9-107.06-65.6-160-99-56.28-35.5-109.81-75.8-164-114-54.99-38.74-105.27-83.89-159-124-22.22-16.59-41.67-37.16-64-54-25.1-18.93-45.75-43.92-71-63-8.4-6.35-14.61-16.65-23-23-14.83-11.21-28.9-24.9-42-38q-7.5-7.995-15-16c-16.02-12.11-28.91-27.91-43-42-13.77-13.77-29.17-26.34-41-42q-8.505-7.995-17-16c-12.76-12.78-26.08-26.54-37-41q-6-5.505-12-11c-13.83-18.29-32.32-32.9-46-51-10.47-13.85-23.72-25.37-34-39-29.9-39.65-65.6-75.02-95-115-52.55-71.44-106.63-141.88-158-215-34.72-49.41-64.5-101.37-97-153-81.15-128.94-152.94-267.29-217-413-14.63-33.27-30.39-68.26-45-102-17.22-39.77-30.64-81.13-47-121-7-17.05-9.95-33.84-17-51-18.09-44.04-31.72-92.88-47-139-20.75-62.63-33.62-127.93-53-192-5.58-18.45-6.68-36.2-12-55-10.99-38.82-16.36-82.09-27-122q-3-18.495-6-37c-5.59-21.88-6.24-45.75-12-69A407.139,407.139,0,0,1,3464,7597Zm4709,313c-9.24,5.81-36.19,5.7-49,9-36.64,9.43-77.27,12.65-114,22-12.79,3.26-45.51,4.16-54,10q422.46,421.965,845,844-310.965-442.455-622-885h-6Zm-1989,42q-421.455,421.965-843,844,442.455-310.965,885-622c-4.51-14.33-4.05-29.73-8-45-9.49-36.69-12.63-77.34-22-114-3.84-15.02-4.37-30.04-8-44C6186.28,7964.42,6187.57,7956.58,6184,7952Zm889,4932c79.98-1.6,139.47,14.8,188,45,17.25,10.7,32.71,24.6,50,35v2c-9.12,7.3-16.99,24-24,34-16.81,23.9-36.8,46.7-52,72h-2c-6.14-7.7-17.82-12.3-26-18-18.42-12.9-38.34-26.3-62-34-10.36-3.4-22.02-3.6-33-6-12.84-2.8-32.76-.3-43,2-36.43,8.3-57.75,11.1-67,47-2.23,8.7-2.99,21.8,0,31,11.87,36.4,89.81,38.9,130,50,91.67,25.4,146.86,41.4,174,133,5.11,17.2,10.22,61.2,5,84-3.91,17.1-6.59,34.2-13,49-20.83,48.1-60.85,78.1-110,98-17.61,7.1-38.33,9.5-58,14-16.31,3.8-62.27,5.9-80,2h-13c-15.67-2.3-31.34-4.7-47-7-44.22-12.3-80.83-26.8-114-49-13.34-8.9-39.73-26.4-48-39,10.66-7.4,19.21-22.6,27-33,13.1-17.5,28.79-33.2,42-51,4.6-6.2,11.26-10.8,15-18,19.75,11.6,35.03,29.8,55,42,16.98,10.4,37.61,16.4,59,22,10.34,2.7,21.75,1.8,32,4,8.9,1.9,24.67.6,32-1,6.67-.3,13.33-0.7,20-1,27.2-6.5,52.85-13.6,64-36,4.62-9.3,6.73-33.5,2-45-10.87-26.5-46.35-29.8-76-38-18.71-5.2-39.77-5.9-60-11-39.08-9.9-78.37-17.9-107-38-25.53-17.9-47.32-44.3-58-77-4.34-13.3-3.66-25.7-7-41-2.77-12.7-4.1-38.9-1-53l6-33c14.53-45,39.57-79.1,76-102,21.94-13.8,48.84-21.6,77-29Z"/>
</svg>
