<svg xmlns="http://www.w3.org/2000/svg" width="900" height="920" viewBox="0 0 900 920">
  <defs>
    <style>
      .cls-1 {
        fill: #3e2c12;
        fill-rule: evenodd;
      }
    </style>
  </defs>
  <path id="Color_Fill_1" data-name="Color Fill 1" class="cls-1" d="M450,1C375.491-.208,338.779,27.141,314,75c-8.4,16.233-12,31.9-12,58v17c8.069,33.464,22.47,63.064,37,91,16.838,32.373,37.03,62.968,56,93,7.27,11.51,13,23.121,21,34,6.068,8.25,20.112,12.484,29,18,19.356,12.012,39.3,23.608,59,36,51.736,32.543,104.65,63.479,157,96,21.982,13.656,43.642,30.119,67,42v2c-8.234,2.365-16.138,8.8-23,13-12.127,7.416-25.32,12.866-37,20-8.793,5.371-18.179,7.635-27,13-21.814,13.268-46.18,24.7-68,38-13.7,8.351-28.292,12.67-42,21-37.852,23-78.5,41.492-118,63-63.544,34.6-127.188,71.357-193,103v-3c5.771-6.516,7.332-16.329,12-24,10.027-16.478,17.782-34.278,27-52,31.587-60.726,60.4-120.794,78-196V543c0.008-24.715-4.327-41.8-11-59-20.467-52.742-57.307-84.066-113-102-19.728-6.353-52.336-10.424-76-4C75.22,394.772,36.313,426.9,13,482,5.1,500.673-4.963,534.258,2,563c10.508,43.378,23.632,79.842,40,117,3.846,8.732,10.142,18.273,14,27,11.015,24.916,22.312,49.551,36,72,3.914,6.419,5.095,13.575,9,20,12.805,21.068,24.222,44.144,37,65,5.5,8.974,13.359,30.607,23,34,3.608,2.9,9.889,2.021,14,0,13.03-6.4,26.828-12.836,40-20,52.127-28.352,105.607-56.113,158-84,39.386-20.964,80.324-40.025,118-63,22.1-13.477,46.39-22.823,68-36,25.619-15.621,53.865-26.678,79-42,5.787-3.528,12.208-4.481,18-8,31.142-18.923,65.864-34.057,97-53,8.1-4.926,17.185-6.673,25-12,8.583-5.85,14.165-19.223,20-28,14.648-22.033,27.763-44.694,42-68,19.491-31.907,34.813-64.923,50-102,4.918-12.007,14.574-38.152,10-58-2.388-10.364-3.129-21.588-7-31-13.772-33.485-39.136-61.684-72-76l-29-9c-16.295-4.137-41.5-.875-54,3-41.872,12.984-72.514,35.192-89,73-4.084,9.366-6.389,19.48-9,30-6.546,26.373,2.984,55,10,72,10.478,25.388,18.375,49.576,32,72,6.77,11.143,20.536,30.5,24,43h-2c-5.2-5.015-12.688-7.027-19-11-13.359-8.409-27.2-16.421-41-25-40.427-25.127-81.784-50.63-122-76-14.782-9.326-29.608-18.024-44-27-5.7-3.557-16.088-5.891-18-13,3.357-3.731,4.219-8.531,7-13,8.574-13.782,17.152-27.768,26-42,25.621-41.209,50.427-85.05,66-136,8.837-28.913.557-68.859-11-88-14-23.18-33.7-45.346-59-57a217.023,217.023,0,0,0-24-9C460.115,2.421,453.915,3.512,450,1Zm-6,37c7.361,4.7,19.13,4.56,27,8,18.661,8.158,34.1,24.935,44,42,13.06,22.516,10.779,58.207,1,82-22.652,55.113-54.636,102.9-84,151h-1v-1c-5.048-3.7-6.58-9.579-10-15-8.384-13.288-16.463-27.014-25-41-21.921-35.912-45.151-74.937-57-120-4.8-18.249,2.623-39.163,8-51C363.363,56.975,391.118,37.972,444,38Zm-3,38c-27.2-.5-45.486,7.147-56,23-25.8,38.9,2.7,79.884,38,88,8.864,2.038,19.556-1.017,25-3,21.765-7.929,48.651-32.929,38-68-4.322-14.231-16.413-27.912-28-35C453.333,78.145,445.809,79,441,76Zm-4,37c4.5,4.37,8.63,8.5,13,13,0.34,14.921-4.81,16.276-12,23-8.045.463-11.443-.25-18-2-6.417-9.4-10.777-27.186,4-32C426.81,112.758,431.715,112.864,437,113ZM784,245c5.279,3.264,13.22,2.55,19,5,19.714,8.356,37.372,23.434,48,41,10.669,17.634,15.32,52.857,6,76-23.452,58.236-54.846,110.318-87,160h-2c-5.781-10.318-13.721-20.081-20-30-26.75-42.256-55.205-93.114-71-145-5.605-18.413,1.989-39.612,7-51C700.662,263.136,728.3,244.628,784,245Zm-6,37c-30.785-.556-50.994,11.3-60,32-15.418,35.438,7.4,69.641,35,78,43.34,13.125,83.3-30.742,70-71-4.208-12.735-14.414-25.452-25-32C792.231,285.432,784.042,285.78,778,282Zm-8,36c9.2,6.828,17.829,6.84,18,23-2.853,3.91-3.975,9.341-8,12-8.511,5.623-23.081,2.64-26-6-4.656-4.658-2.556-12.949-1-19C758.838,324.18,762.31,320.94,770,318ZM187,414c3.156,1.923,7.85.841,12,2l24,8c32.683,14.316,56.426,42.415,70,76,12.379,30.628,4.752,69.659-5,96-22.91,61.884-49.148,116.261-78,171-9.763,18.522-18.485,36.747-29,54-3.969,6.512-6.089,17.673-13,21v-1c-4.641-5.053-6.281-11.907-10-18-11.992-19.649-20.7-41.743-33-62-12.515-20.61-22.923-43.048-33-66-18.114-41.26-40.174-81.539-52-130-4.91-20.119-.732-46.416,5-62,16.44-44.7,46.409-73.842,94-87C152.372,412.3,170.834,414,187,414Zm-1,37c-52.269-.7-79.666,15.559-99,47-3.9,6.344-6.962,15.577-9,23-16.411,59.763,30.572,104.5,72,115,17.148,4.347,39.362-.2,51-5,37.607-15.524,50.263-32.5,60-76,2.6-11.628,1.278-29.089-2-39-7.466-22.575-24.212-41.561-43-53C207.923,458.082,193.111,455.92,186,451Zm-7,37c6.173,3.977,14.039,4.09,20,8,9.68,6.348,20.131,19.054,24,31,13.472,41.594-26.351,83.761-71,71-25.6-7.317-51.225-45.532-34-79C128.326,498.937,147.52,487.518,179,488Z"/>
</svg>
